name GIL04_xslow1EmgEnv.mot
datacolumns 51
datarows 4
range 1.15092587 1.15370369
endheader
                time	   rect_fem_l_emgRec	   rect_fem_l_emgEnv	   rect_fem_l_emgAve	   rect_fem_l_emgSDp	   rect_fem_l_emgSDm	   rect_fem_r_emgRec	   rect_fem_r_emgEnv	   rect_fem_r_emgAve	   rect_fem_r_emgSDp	   rect_fem_r_emgSDm	   med_hams_l_emgRec	   med_hams_l_emgEnv	   med_hams_l_emgAve	   med_hams_l_emgSDp	   med_hams_l_emgSDm	   med_hams_r_emgRec	   med_hams_r_emgEnv	   med_hams_r_emgAve	   med_hams_r_emgSDp	   med_hams_r_emgSDm	   lat_hams_l_emgRec	   lat_hams_l_emgEnv	   lat_hams_l_emgAve	   lat_hams_l_emgSDp	   lat_hams_l_emgSDm	   lat_hams_r_emgRec	   lat_hams_r_emgEnv	   lat_hams_r_emgAve	   lat_hams_r_emgSDp	   lat_hams_r_emgSDm	    tib_ant_l_emgRec	    tib_ant_l_emgEnv	    tib_ant_l_emgAve	    tib_ant_l_emgSDp	    tib_ant_l_emgSDm	    tib_ant_r_emgRec	    tib_ant_r_emgEnv	    tib_ant_r_emgAve	    tib_ant_r_emgSDp	    tib_ant_r_emgSDm	    gas_sol_l_emgRec	    gas_sol_l_emgEnv	    gas_sol_l_emgAve	    gas_sol_l_emgSDp	    gas_sol_l_emgSDm	    gas_sol_r_emgRec	    gas_sol_r_emgEnv	    gas_sol_r_emgAve	    gas_sol_r_emgSDp	    gas_sol_r_emgSDm	
          1.15092587	          0.21604999	          0.51124982	          0.26115543	          0.54505169	         -0.02274084	          0.02496679	          0.03053440	          0.00193378	         -0.00191761	          0.00578517	          0.04652569	          0.74432865	          0.29107839	          0.65085948	         -0.06870270	          0.01382769	          0.16584337	          0.32929653	          0.40214531	          0.25644775	          0.05091378	          0.09099294	          0.07147484	          0.12176620	          0.02118347	          0.01468308	          0.03115005	          0.07267024	          0.11511421	          0.03022628	          0.00730550	          0.53510530	          0.58402604	          0.69417998	          0.47387210	          0.02163299	          0.12053443	          0.04141012	          0.04990842	          0.03291182	          0.00955855	          0.04745160	          0.02981381	          0.06367943	         -0.00405181	          0.01785956	          0.05850286	          0.07021149	          0.08590555	          0.05451742	
          1.15185189	          0.02565075	          0.51196043	          0.26134160	          0.54565555	         -0.02297235	          0.01647212	          0.03015736	          0.00143159	         -0.00248738	          0.00535056	          0.03986571	          0.74228054	          0.29114109	          0.65128794	         -0.06900576	          0.00465564	          0.17022178	          0.33047107	          0.40249332	          0.25844882	          0.06934800	          0.08980566	          0.07109867	          0.12146190	          0.02073544	          0.01410564	          0.03185477	          0.07233964	          0.11428214	          0.03039714	          0.05985953	          0.53525649	          0.58437485	          0.69430318	          0.47444651	          0.03609678	          0.12101672	          0.04134466	          0.04958195	          0.03310738	          0.00191015	          0.04771534	          0.03030463	          0.06396783	         -0.00335858	          0.08702356	          0.05776883	          0.06968810	          0.08535165	          0.05402454	
          1.15277779	          0.10767748	          0.51262323	          0.26152784	          0.54625806	         -0.02320239	          0.00847799	          0.02974720	          0.00094190	         -0.00303778	          0.00492158	          0.28967187	          0.74013734	          0.29120013	          0.65171030	         -0.06931004	          0.03105620	          0.17472797	          0.33162522	          0.40282886	          0.26042158	          0.06665249	          0.08863724	          0.07072832	          0.12117118	          0.02028546	          0.01618596	          0.03255042	          0.07201584	          0.11346632	          0.03056535	          0.04262506	          0.53563597	          0.58471537	          0.69442165	          0.47500908	          0.04050677	          0.12148180	          0.04131091	          0.04929003	          0.03333178	          0.02527213	          0.04801676	          0.03080970	          0.06427476	         -0.00265537	          0.10439029	          0.05713595	          0.06917273	          0.08480510	          0.05354037	
          1.15370369	          0.07980674	          0.51323772	          0.26171407	          0.54685906	         -0.02343091	          0.01706068	          0.02930586	          0.00046481	         -0.00356866	          0.00449828	          0.00187782	          0.73791721	          0.29125535	          0.65212634	         -0.06961563	          0.09290994	          0.17935403	          0.33275869	          0.40315157	          0.26236582	          0.04127711	          0.08748814	          0.07036371	          0.12089396	          0.01983345	          0.00640768	          0.03323529	          0.07169878	          0.11266664	          0.03073093	          0.11430776	          0.53624514	          0.58504814	          0.69453588	          0.47556040	          0.03028063	          0.12192703	          0.04130919	          0.04903309	          0.03358528	          0.03576986	          0.04835681	          0.03132910	          0.06460028	         -0.00194209	          0.02828096	          0.05660310	          0.06866539	          0.08426591	          0.05306488	
